# xmcd
#
# Track frame offsets:
#	150
#	19722
#	33818
#	46268
#	61514
#	74439
#	94135
#	106290
#	119923
#	134169
#
# Disc length: 1980 seconds
#
# Revision: 0
# Processed by: cddbd v1.5.1PL2 Copyright (c) Steve Scherf et al.
# Submitted via: dBpowerAMP V4.0
#
DISCID=8907ba0a
DTITLE=The Spencers - I'll Take Your Place
DYEAR=2000
DGENRE=Southern Gospel
TTITLE0=I'll Take Your Place
TTITLE1=Bigger Than Any Mountain
TTITLE2=Seeting My House In Order
TTITLE3=Drinking From My Saucer
TTITLE4=Heaven Will Be Worth The Journey
TTITLE5=Were You There
TTITLE6=My Soul Has Wings
TTITLE7=I Never Shall Forget The Day
TTITLE8=The Old Country Church
TTITLE9=Home Free
EXTD=Gospel
EXTT0=
EXTT1=
EXTT2=
EXTT3=
EXTT4=
EXTT5=
EXTT6=
EXTT7=
EXTT8=
EXTT9=
PLAYORDER=
